# xmcd
#
# Track frame offsets: 
#        150
#        85458
#        105771
#
# Disc length: 2401 seconds
#
# Revision: 5
# Processed by: cddbd v1.5.2PL0 Copyright (c) Steve Scherf et al.
# Submitted via: ExactAudioCopy v0.99pb5
#
DISCID=16095f03
DTITLE=Don Cherry, Krzysztof Penderecki - Actions
DYEAR=2001
DGENRE=Free Jazz, Avant-Garde
TTITLE0=Humus - The Life Exploring Force
TTITLE1=Sita Rama Encores
TTITLE2=Actions For Free Jazz Orchestra
EXTD=YEAR: 1977
EXTT0=
EXTT1=
EXTT2=
PLAYORDER=
